<svg width="50" height="52" viewBox="0 0 50 52" fill="none" xmlns="http://www.w3.org/2000/svg">
<path d="M32.4776 23.0138C31.3406 21.3183 31.8089 19.0269 33.5006 17.8925C34.636 17.1307 36.0393 17.0798 37.1836 17.6367C37.2504 17.5871 37.3189 17.5388 37.3891 17.4919M32.4776 23.0138L44.3119 21.1087C44.565 21.0139 44.8121 20.8919 45.0462 20.7355C46.6603 19.6536 47.0987 17.4757 46.0222 15.8699C44.9465 14.2655 42.7659 13.8401 41.1504 14.9229M32.4776 23.0138C33.2782 24.2077 34.6519 24.7754 35.9842 24.6139C37.5626 26.9426 40.7336 27.546 43.075 25.9758M32.4776 23.0138L45.356 21.7196ZM37.3891 17.4919C37.3895 17.4917 37.3898 17.4914 37.3901 17.4912L37.6836 17.931C37.7628 17.9865 37.8401 18.0454 37.9152 18.1075L37.8523 18.1837L37.9452 18.323M37.3891 17.4919C37.8043 17.2135 38.2452 17.0045 38.6982 16.8608ZM37.3891 17.4919C37.3888 17.4921 37.3885 17.4923 37.3882 17.4925L37.6811 17.9292L38.6982 16.8608M37.9452 18.323L37.8523 18.1837L37.2779 18.8781C37.4771 18.6746 37.6988 18.4875 37.9452 18.323ZM37.9452 18.323C38.4591 17.9783 39.0209 17.7657 39.5931 17.6729ZM39.5931 17.6729C39.6477 16.6019 40.1873 15.5677 41.1504 14.9229ZM39.5931 17.6729L39.4331 16.6858C39.1861 16.7259 38.9404 16.784 38.6982 16.8608M39.5931 17.6729L38.5944 17.6221C38.6075 17.3659 38.6423 17.1111 38.6982 16.8608M41.1504 14.9229L40.5936 14.0923ZM41.1504 14.9229L40.5936 14.0923ZM45.356 21.7196C45.4386 21.6721 45.5205 21.6213 45.6015 21.5672L45.603 21.5662C47.6707 20.1802 48.2404 17.3828 46.8528 15.3131C45.467 13.246 42.6636 12.7051 40.5936 14.0923L45.356 21.7196ZM45.356 21.7196C45.3524 23.3669 44.5521 24.9869 43.075 25.9758ZM40.5936 14.0923C39.5876 14.766 38.9419 15.7713 38.6982 16.8608ZM40.5936 14.0923L38.6982 16.8608Z" fill="#B1AEAE"/>
<path d="M32.4776 23.0138C31.3406 21.3183 31.8089 19.0269 33.5006 17.8925C34.636 17.1307 36.0393 17.0798 37.1836 17.6367C37.2504 17.5871 37.3189 17.5388 37.3891 17.4919M32.4776 23.0138L44.3119 21.1087C44.565 21.0139 44.8121 20.8919 45.0462 20.7355C46.6603 19.6536 47.0987 17.4757 46.0222 15.8699C44.9465 14.2655 42.7659 13.8401 41.1504 14.9229M32.4776 23.0138C33.2782 24.2077 34.6519 24.7754 35.9842 24.6139C37.5626 26.9426 40.7336 27.546 43.075 25.9758M32.4776 23.0138L45.356 21.7196M37.3891 17.4919C37.3895 17.4917 37.3898 17.4914 37.3901 17.4912L37.6836 17.931C37.7628 17.9865 37.8401 18.0454 37.9152 18.1075L37.8523 18.1837M37.3891 17.4919C37.8043 17.2135 38.2452 17.0045 38.6982 16.8608M37.3891 17.4919C37.3888 17.4921 37.3885 17.4923 37.3882 17.4925L37.6811 17.9292L38.6982 16.8608M41.1504 14.9229C40.1873 15.5677 39.6477 16.6019 39.5931 17.6729M41.1504 14.9229L40.5936 14.0923M43.075 25.9758C44.5521 24.9869 45.3524 23.3669 45.356 21.7196M43.075 25.9758C43.0752 25.9757 43.0748 25.9759 43.075 25.9758ZM43.075 25.9758L42.5184 25.145M45.356 21.7196C45.4386 21.6721 45.5205 21.6213 45.6015 21.5672L45.603 21.5662C47.6707 20.1802 48.2404 17.3828 46.8528 15.3131C45.467 13.246 42.6636 12.7051 40.5936 14.0923M45.356 21.7196L40.5936 14.0923M37.8523 18.1837L37.9452 18.323M37.8523 18.1837L37.2779 18.8781C37.4771 18.6746 37.6988 18.4875 37.9452 18.323M37.9452 18.323C38.4591 17.9783 39.0209 17.7657 39.5931 17.6729M38.6982 16.8608C38.9404 16.784 39.1861 16.7259 39.4331 16.6858L39.5931 17.6729M38.6982 16.8608C38.6423 17.1111 38.6075 17.3659 38.5944 17.6221L39.5931 17.6729M38.6982 16.8608C38.9419 15.7713 39.5876 14.766 40.5936 14.0923M38.6982 16.8608L40.5936 14.0923" stroke="#B1AEAE" stroke-width="2" stroke-miterlimit="10"/>
<path d="M18.6971 40.5939C20.4595 40.5984 22.0075 41.878 22.2988 43.6771C22.6191 45.6547 21.3029 47.5301 19.3427 47.901C19.0032 48.9685 18.096 49.8165 16.9132 50.0146C15.2328 50.2961 13.6525 49.1567 13.38 47.4779L13.3797 47.4762C13.3414 47.2374 13.332 47.0006 13.3483 46.7696C12.8596 46.2954 12.5128 45.6645 12.3948 44.9384C12.1032 43.143 13.3165 41.4421 15.1114 41.1413L18.6971 40.5939ZM18.6971 40.5939L18.6586 40.5452L18.0751 40.6431C17.5307 40.7344 17.0332 40.9424 16.6047 41.2365C16.1362 41.0943 15.6274 41.0547 15.1114 41.1413L18.6971 40.5939Z" fill="#B1AEAE"/>
<path d="M18.6971 40.5939C20.4595 40.5984 22.0075 41.878 22.2988 43.6771C22.6191 45.6547 21.3029 47.5301 19.3427 47.901C19.0032 48.9685 18.096 49.8165 16.9132 50.0146C15.2328 50.2961 13.6525 49.1567 13.38 47.4779L13.3797 47.4762C13.3414 47.2374 13.332 47.0006 13.3483 46.7696C12.8596 46.2954 12.5128 45.6645 12.3948 44.9384C12.1032 43.143 13.3165 41.4421 15.1114 41.1413M18.6971 40.5939L15.1114 41.1413M18.6971 40.5939L18.6586 40.5452L18.0751 40.6431C17.5307 40.7344 17.0332 40.9424 16.6047 41.2365C16.1362 41.0943 15.6274 41.0547 15.1114 41.1413" stroke="#B1AEAE" stroke-width="2" stroke-miterlimit="10"/>
<path d="M17.1774 7.68019C17.5659 4.31152 20.4564 1.72514 23.9042 1.81014L17.1774 7.68019ZM17.1774 7.68019C14.8959 7.72864 13.0441 9.57518 12.9849 11.8782C12.9239 14.251 14.7897 16.2293 17.1608 16.2885C18.6755 16.3257 20.0211 15.5682 20.8113 14.4015C21.6454 14.8163 22.581 15.0599 23.5734 15.0831L17.1774 7.68019ZM28.9839 12.4752C27.7447 14.1011 25.7739 15.1362 23.5734 15.0831L28.9839 12.4752ZM28.9839 12.4752C29.0054 12.4761 29.0271 12.4768 29.0489 12.4772ZM28.9839 12.4752L29.0489 12.4772ZM29.0489 12.4772C30.9938 12.5242 32.5984 10.9778 32.6461 9.03588C32.6903 7.23508 31.3824 5.70738 29.6388 5.45789C28.58 3.34834 26.4288 1.87152 23.9042 1.81014L29.0489 12.4772Z" fill="#B1AEAE"/>
<path d="M17.1774 7.68019C17.5659 4.31152 20.4564 1.72514 23.9042 1.81014M17.1774 7.68019L23.9042 1.81014M17.1774 7.68019C14.8959 7.72864 13.0441 9.57518 12.9849 11.8782C12.9239 14.251 14.7897 16.2293 17.1608 16.2885C18.6755 16.3257 20.0211 15.5682 20.8113 14.4015C21.6454 14.8163 22.581 15.0599 23.5734 15.0831M17.1774 7.68019L23.5734 15.0831M23.9042 1.81014C26.4288 1.87152 28.58 3.34834 29.6388 5.45789C31.3824 5.70738 32.6903 7.23508 32.6461 9.03588C32.5984 10.9778 30.9938 12.5242 29.0489 12.4772M23.9042 1.81014L29.0489 12.4772M23.5734 15.0831C25.7739 15.1362 27.7447 14.1011 28.9839 12.4752M23.5734 15.0831L28.9839 12.4752M28.9839 12.4752C29.0054 12.4761 29.0271 12.4768 29.0489 12.4772M28.9839 12.4752L29.0489 12.4772" stroke="#B1AEAE" stroke-width="2" stroke-miterlimit="10"/>
<path d="M19 5.5L17 8.5L23.5 15L28.5 13L27.5 9L24 2.5L19 5.5Z" fill="#B1AEAE"/>
<path d="M44 25.5L44.5 22L41.5 15L36 18L34.5 19L33 22.5L36 25L40 26.5L44 25.5Z" fill="#B1AEAE"/>
<path d="M19 5.5L17 8.5L23.5 15L28.5 13L27.5 9L24 2.5L19 5.5Z" stroke="#B1AEAE"/>
<path d="M44 25.5L44.5 22L41.5 15L36 18L34.5 19L33 22.5L36 25L40 26.5L44 25.5Z" stroke="#B1AEAE"/>
<path d="M9.51205 26.4692C8.47691 26.6593 7.52839 27.0565 6.83198 27.5902C6.18204 28.0884 5.51706 28.9061 5.67218 29.9261L5.67233 29.9271C5.81388 30.8519 6.55121 31.396 7.23291 31.6668C7.52258 31.7819 7.83939 31.8655 8.17358 31.9187C8.15224 32.2768 8.21729 32.6497 8.40136 33.0225L8.40204 33.0239C8.90377 34.0361 10.0401 34.5249 11.0996 34.7163C12.2179 34.9184 13.5448 34.852 14.8414 34.4992C15.9493 34.1973 16.9199 33.7174 17.6335 33.1208C18.1056 32.726 18.5293 32.2222 18.745 31.6366C18.8951 31.6009 19.0455 31.5626 19.1963 31.5215C20.3693 31.2014 21.4221 30.75 22.2978 30.2109C22.5708 30.1847 22.8527 30.1467 23.1408 30.0929C24.5389 29.8353 25.8047 29.3004 26.7202 28.5986C27.5892 27.9325 28.3766 26.9151 28.19 25.7043C28.0022 24.4862 26.9628 23.7888 25.9424 23.4611C24.9592 23.1454 23.7471 23.0738 22.4896 23.2473C20.6296 22.4962 17.9987 22.454 15.4769 23.1402C14.1544 23.5003 12.9835 24.0273 12.0464 24.6619C11.3252 25.1501 10.708 25.7259 10.2812 26.3695C10.0302 26.3883 9.77301 26.421 9.51205 26.4692ZM9.51205 26.4692L9.69264 27.4528ZM9.51205 26.4692C9.51163 26.4693 9.5112 26.4694 9.51077 26.4695L9.69264 27.4528M9.69264 27.4528C7.87311 27.7869 6.51658 28.8274 6.66082 29.7758C6.75509 30.3918 7.46117 30.8169 8.44223 30.9474L9.69264 27.4528ZM9.17275 31.9893C9.16378 32.1906 9.20382 32.389 9.29802 32.5798C9.87496 33.7438 12.2392 34.1709 14.5788 33.5343C16.5784 32.9896 17.9089 31.8437 17.8953 30.7948C18.2405 30.7302 18.5857 30.6515 18.9332 30.5567L9.17275 31.9893Z" fill="#B1AEAE"/>
<path d="M9.51205 26.4692C8.47691 26.6593 7.52839 27.0565 6.83198 27.5902C6.18204 28.0884 5.51706 28.9061 5.67218 29.9261L5.67233 29.9271C5.81388 30.8519 6.55121 31.396 7.23291 31.6668C7.52258 31.7819 7.83939 31.8655 8.17358 31.9187C8.15224 32.2768 8.21729 32.6497 8.40136 33.0225L8.40204 33.0239C8.90377 34.0361 10.0401 34.5249 11.0996 34.7163C12.2179 34.9184 13.5448 34.852 14.8414 34.4992C15.9493 34.1973 16.9199 33.7174 17.6335 33.1208C18.1056 32.726 18.5293 32.2222 18.745 31.6366C18.8951 31.6009 19.0455 31.5626 19.1963 31.5215C20.3693 31.2014 21.4221 30.75 22.2978 30.2109C22.5708 30.1847 22.8527 30.1467 23.1408 30.0929C24.5389 29.8353 25.8047 29.3004 26.7202 28.5986C27.5892 27.9325 28.3766 26.9151 28.19 25.7043C28.0022 24.4862 26.9628 23.7888 25.9424 23.4611C24.9592 23.1454 23.7471 23.0738 22.4896 23.2473C20.6296 22.4962 17.9987 22.454 15.4769 23.1402C14.1544 23.5003 12.9835 24.0273 12.0464 24.6619C11.3252 25.1501 10.708 25.7259 10.2812 26.3695C10.0302 26.3883 9.77301 26.421 9.51205 26.4692ZM9.51205 26.4692L9.69264 27.4528M9.51205 26.4692C9.51163 26.4693 9.5112 26.4694 9.51077 26.4695L9.69264 27.4528M9.69264 27.4528C7.87311 27.7869 6.51658 28.8274 6.66082 29.7758C6.75509 30.3918 7.46117 30.8169 8.44223 30.9474L9.69264 27.4528ZM9.17275 31.9893C9.16378 32.1906 9.20382 32.389 9.29802 32.5798C9.87496 33.7438 12.2392 34.1709 14.5788 33.5343C16.5784 32.9896 17.9089 31.8437 17.8953 30.7948C18.2405 30.7302 18.5857 30.6515 18.9332 30.5567L9.17275 31.9893Z" stroke="#B1AEAE" stroke-width="2" stroke-miterlimit="10"/>
<path d="M3.69982 20.9792C5.19089 20.9792 6.39964 19.7705 6.39964 18.2794C6.39964 16.7883 5.19089 15.5796 3.69982 15.5796C2.20875 15.5796 1 16.7883 1 18.2794C1 19.7705 2.20875 20.9792 3.69982 20.9792Z" fill="#B1AEAE" stroke="#B1AEAE" stroke-width="2"/>
<path d="M29.5983 38.738C31.0893 38.738 32.2981 37.5293 32.2981 36.0382C32.2981 34.5471 31.0893 33.3384 29.5983 33.3384C28.1072 33.3384 26.8984 34.5471 26.8984 36.0382C26.8984 37.5293 28.1072 38.738 29.5983 38.738Z" fill="#B1AEAE" stroke="#B1AEAE" stroke-width="2"/>
</svg>
