<svg width="54" height="49" viewBox="0 0 54 49" fill="none" xmlns="http://www.w3.org/2000/svg">
<rect x="37.4708" y="41.6525" width="6.18161" height="6.18161" rx="2" fill="#1E1E1E" stroke="#AE3B5F" stroke-width="2"/>
<rect x="9.87219" y="41.6525" width="6.18161" height="6.18161" rx="2" fill="#1E1E1E" stroke="#AE3B5F" stroke-width="2"/>
<rect x="1" y="25.2533" width="51.5246" height="16.3991" rx="4" fill="#AE3B5F" stroke="#231F20" stroke-width="2"/>
<path d="M16.2653 34.843H37.2398C37.8964 34.843 38.4512 34.283 38.4512 33.6203C38.4512 32.9575 37.8964 32.3975 37.2398 32.3975H16.2653C15.6087 32.3975 15.0538 32.9575 15.0538 33.6203C15.0538 34.283 15.6087 34.843 16.2653 34.843Z" fill="#231F20"/>
<path d="M6.32575 24.926L12.8236 1H41.9071L47.2583 24.926H6.32575Z" fill="#AE3B5F" stroke="#231F20" stroke-width="2"/>
<path d="M22.9559 9.13613H31.3855C32.0421 9.13613 32.597 8.57608 32.597 7.91334C32.597 7.25061 32.0421 6.69055 31.3855 6.69055H22.9559C22.2993 6.69055 21.7444 7.25061 21.7444 7.91334C21.7444 8.57608 22.2993 9.13613 22.9559 9.13613Z" fill="#231F20"/>
<path d="M28.435 7.42968L28.435 0.93366C28.435 0.427665 27.8604 6.47653e-05 27.1805 6.4795e-05C26.5006 6.48247e-05 25.926 0.427665 25.926 0.93366L25.926 7.42968C25.926 7.93568 26.5006 8.36328 27.1805 8.36328C27.8604 8.36328 28.435 7.93568 28.435 7.42968Z" fill="#231F20"/>
<circle cx="44.7432" cy="33.871" r="3.59977" stroke="#231F20" stroke-width="2"/>
<circle cx="8.78141" cy="33.871" r="3.59977" stroke="#231F20" stroke-width="2"/>
</svg>
