<svg width="55" height="46" viewBox="0 0 55 46" fill="none" xmlns="http://www.w3.org/2000/svg">
<path d="M53.0152 22.5752C53.0152 19.6533 50.7455 17.2635 47.8705 17.0601C45.4339 7.81953 37.0177 1 27.005 1C17.5505 1 9.51006 7.08383 6.59858 15.5574C6.4264 16.053 6.28031 16.5539 6.14465 17.0653C3.2697 17.2635 1 19.6533 1 22.5804C1 25.5075 3.2697 27.892 6.14465 28.0955C8.58131 37.3412 16.9974 44.1608 27.0102 44.1608C37.023 44.1608 45.4391 37.3412 47.8758 28.0955C50.7507 27.8972 53.0204 25.5075 53.0204 22.5804L53.0152 22.5752Z" fill="#EFDCDC" stroke="#231F20" stroke-width="2" stroke-linecap="round" stroke-linejoin="round"/>
<path d="M30.3339 27.2136C30.3339 27.2136 29.4365 29.0137 27.005 29.0137C24.5736 29.0137 23.6761 27.2136 23.6761 27.2136" stroke="#231F20" stroke-width="2" stroke-linecap="round" stroke-linejoin="round"/>
<path d="M27.2397 1C31.7061 1 35.3272 4.62108 35.3272 9.08742C35.3272 12.6615 32.4313 15.5574 28.8572 15.5574C25.9979 15.5574 23.6813 13.2407 23.6813 10.3814C23.6813 8.09606 25.5336 6.23856 27.8241 6.23856C29.6555 6.23856 31.1374 7.72039 31.1374 9.5518" stroke="#231F20" stroke-width="2" stroke-linecap="round" stroke-linejoin="round"/>
<path d="M19.0845 21.7454C19.0845 22.7002 18.3123 23.4724 17.3574 23.4724C16.4026 23.4724 15.6304 22.7002 15.6304 21.7454" fill="#EFDCDC"/>
<path d="M19.0845 21.7454C19.0845 22.7002 18.3123 23.4724 17.3574 23.4724C16.4026 23.4724 15.6304 22.7002 15.6304 21.7454" stroke="#231F20" stroke-width="2" stroke-linecap="round" stroke-linejoin="round"/>
<path d="M38.39 21.7454C38.39 22.7002 37.6178 23.4724 36.663 23.4724C35.7081 23.4724 34.9359 22.7002 34.9359 21.7454" fill="#EFDCDC"/>
<path d="M38.39 21.7454C38.39 22.7002 37.6178 23.4724 36.663 23.4724C35.7081 23.4724 34.9359 22.7002 34.9359 21.7454" stroke="#231F20" stroke-width="2" stroke-linecap="round" stroke-linejoin="round"/>
<path d="M25.278 24.3386C25.278 23.3838 26.0502 22.6116 27.005 22.6116C27.9598 22.6116 28.7321 23.3838 28.7321 24.3386" fill="#EFDCDC"/>
<path d="M25.278 24.3386C25.278 23.3838 26.0502 22.6116 27.005 22.6116C27.9598 22.6116 28.7321 23.3838 28.7321 24.3386" stroke="#231F20" stroke-width="2" stroke-linecap="round" stroke-linejoin="round"/>
</svg>
