<svg width="45" height="44" viewBox="0 0 45 44" fill="none" xmlns="http://www.w3.org/2000/svg">
<path d="M37.7356 35.5337C37.7398 39.3256 34.5818 42.3815 30.7501 42.2116C29.9616 42.1771 29.2066 42.0023 28.5092 41.7129C26.695 40.9594 24.7648 40.525 22.8007 40.5274H22.2721C20.2491 40.5293 18.2497 40.9394 16.3839 41.7208C15.502 42.0897 14.5236 42.2753 13.4966 42.2298C10.0728 42.077 7.29048 39.3013 7.13024 35.8795C7.02524 33.6232 8.04007 31.5974 9.66733 30.3124C12.0059 28.4674 13.6399 25.8689 14.4107 22.9914C15.3048 19.6491 17.4297 16.1247 22.4098 16.1199C27.3371 16.1144 29.4706 19.6503 30.3865 22.9968C31.1786 25.8975 32.8993 28.4499 35.2422 30.3349C36.762 31.5574 37.7344 33.4309 37.7368 35.5337H37.7356Z" fill="#905D47" stroke="#905D47" stroke-width="2" stroke-miterlimit="10"/>
<path d="M11.2047 20.926C11.2083 24.3425 8.92677 27.1137 6.1081 27.1167C3.29063 27.1191 1.00365 24.3522 1 20.9363C0.996363 17.5198 3.27789 14.7486 6.09596 14.7456C8.91342 14.7426 11.201 17.5101 11.2047 20.926Z" fill="#905D47" stroke="#905D47" stroke-width="2" stroke-miterlimit="10"/>
<path d="M20.7289 7.18039C20.7326 10.5969 18.4511 13.3681 15.633 13.3711C12.8155 13.3747 10.5285 10.6066 10.5243 7.19069C10.5207 3.77539 12.8022 1.00303 15.6209 1C18.4383 0.996973 20.7253 3.76448 20.7289 7.18039Z" fill="#905D47" stroke="#905D47" stroke-width="2" stroke-miterlimit="10"/>
<path d="M43.1793 20.926C43.1829 24.3425 40.9014 27.1137 38.0833 27.1167C35.2646 27.1203 32.9783 24.3522 32.9746 20.9369C32.971 17.5204 35.2525 14.748 38.0706 14.7456C40.888 14.7426 43.1756 17.5101 43.1793 20.926Z" fill="#905D47" stroke="#905D47" stroke-width="2" stroke-miterlimit="10"/>
<path d="M33.6549 7.18009C33.6585 10.5964 31.377 13.3674 28.5583 13.3711C25.7408 13.3741 23.4538 10.6067 23.4502 7.191C23.4466 3.77465 25.7281 1.00364 28.5462 1C31.3636 0.997578 33.6512 3.76435 33.6549 7.18009Z" fill="#905D47" stroke="#905D47" stroke-width="2" stroke-miterlimit="10"/>
</svg>
